<svg width="25" height="24" viewBox="0 0 25 24" fill="none" xmlns="http://www.w3.org/2000/svg">
<path fill-rule="evenodd" clip-rule="evenodd" d="M12.4996 20.1445L11.891 19.7863C7.5928 17.2568 5.13771 14.74 3.91982 12.522C2.62189 10.1582 2.72501 8.14075 3.46266 6.69358C4.9824 3.71205 9.2802 2.80615 11.8721 6.08424L12.4996 6.87788L13.1271 6.08428C15.7194 2.80605 20.0175 3.71214 21.5372 6.69358C22.2748 8.14074 22.3779 10.1582 21.0798 12.522C19.8619 14.7399 17.4066 17.2568 13.1082 19.7863L12.4996 20.1445ZM12.4995 8.8126L10.9308 6.8285C8.91303 4.27657 5.67773 4.99034 4.53178 7.23854C3.99787 8.286 3.83886 9.88135 4.97168 11.9444C6.05145 13.9108 8.31503 16.2894 12.4996 18.7521C16.6844 16.2894 18.9482 13.9108 20.028 11.9444C21.1609 9.88129 21.0019 8.28596 20.468 7.23853C19.3221 4.99047 16.0866 4.27641 14.0684 6.8286L12.4995 8.8126Z" fill="#717171"/>
</svg>
