<svg width="25" height="24" viewBox="0 0 25 24" fill="none" xmlns="http://www.w3.org/2000/svg">
<path d="M22.2315 16.2142C22.1291 15.974 22.0268 15.7137 21.9244 15.4935C21.7607 15.1331 21.5969 14.7928 21.4536 14.4725L21.4331 14.4525C20.0207 11.4494 18.506 8.40641 16.9093 5.4034L16.8479 5.28328C16.6842 4.98298 16.5204 4.66266 16.3567 4.34234C16.152 3.98198 15.9473 3.6016 15.6198 3.24124C14.9647 2.44044 14.0231 2 13.0201 2C11.9966 2 11.0755 2.44044 10.4 3.2012C10.0929 3.56156 9.86778 3.94194 9.66308 4.3023C9.49932 4.62262 9.33557 4.94294 9.17181 5.24324L9.1104 5.36336C7.53423 8.36637 5.99901 11.4094 4.5866 14.4124L4.56613 14.4525C4.42284 14.7728 4.25908 15.1131 4.09533 15.4735C3.99298 15.6937 3.89063 15.9339 3.78828 16.1942C3.52218 16.9349 3.4403 17.6356 3.54265 18.3564C3.76781 19.8579 4.7913 21.1191 6.2037 21.6797C6.73592 21.8999 7.2886 22 7.86175 22C8.02551 22 8.2302 21.98 8.39396 21.96C9.06946 21.8799 9.76543 21.6597 10.4409 21.2793C11.2802 20.8188 12.0785 20.1582 12.9792 19.1972C13.8798 20.1582 14.6986 20.8188 15.5174 21.2793C16.1929 21.6597 16.8889 21.8799 17.5644 21.96C17.7281 21.98 17.9328 22 18.0966 22C18.6697 22 19.2429 21.8999 19.7546 21.6797C21.1875 21.1191 22.1905 19.8378 22.4157 18.3564C22.5794 17.6557 22.4976 16.955 22.2315 16.2142ZM12.9996 17.2553C11.8943 15.8939 11.1778 14.6126 10.9322 13.5315C10.8299 13.0711 10.8094 12.6707 10.8708 12.3103C10.9117 11.99 11.0345 11.7097 11.1983 11.4695C11.5872 10.9289 12.2423 10.5886 12.9996 10.5886C13.757 10.5886 14.4325 10.9089 14.801 11.4695C14.9647 11.7097 15.0875 11.99 15.1285 12.3103C15.1899 12.6707 15.1694 13.0911 15.0671 13.5315C14.8214 14.5926 14.105 15.8739 12.9996 17.2553ZM21.167 18.1962C21.0238 19.2372 20.3073 20.1381 19.3043 20.5385C18.813 20.7387 18.2808 20.7988 17.7486 20.7387C17.2369 20.6787 16.7251 20.5185 16.1929 20.2182C15.456 19.8178 14.7191 19.1972 13.8594 18.2763C15.2104 16.6547 16.0292 15.1732 16.3362 13.8519C16.4795 13.2312 16.5 12.6707 16.4385 12.1502C16.3567 11.6496 16.1724 11.1892 15.8859 10.7888C15.2513 9.88789 14.1869 9.36737 12.9996 9.36737C11.8124 9.36737 10.748 9.90791 10.1134 10.7888C9.82684 11.1892 9.64261 11.6496 9.56073 12.1502C9.47885 12.6707 9.49932 13.2513 9.66308 13.8519C9.97012 15.1732 10.8094 16.6747 12.1399 18.2963C11.3007 19.2172 10.5433 19.8378 9.80637 20.2382C9.27416 20.5385 8.76241 20.6987 8.25067 20.7588C7.69799 20.8188 7.16578 20.7387 6.69498 20.5586C5.69196 20.1582 4.97552 19.2573 4.83223 18.2162C4.77083 17.7157 4.81177 17.2152 5.01646 16.6547C5.07787 16.4545 5.18022 16.2543 5.28257 16.014C5.42586 15.6937 5.58961 15.3534 5.75337 15.013L5.77384 14.973C7.18625 11.99 8.701 8.94695 10.2772 5.98398L10.3386 5.86386C10.5023 5.56356 10.6661 5.24324 10.8299 4.94294C10.9936 4.62262 11.1778 4.32232 11.403 4.06206C11.8329 3.58158 12.406 3.32132 13.0406 3.32132C13.6751 3.32132 14.2483 3.58158 14.6782 4.06206C14.9033 4.32232 15.0875 4.62262 15.2513 4.94294C15.4151 5.24324 15.5788 5.56356 15.7426 5.86386L15.804 5.98398C17.3597 8.96697 18.8744 12.01 20.2868 14.993V15.013C20.4506 15.3333 20.5939 15.6937 20.7576 16.014C20.86 16.2543 20.9623 16.4545 21.0238 16.6547C21.1875 17.1752 21.2489 17.6757 21.167 18.1962Z" fill="#717171"/>
</svg>
