<svg width="25" height="24" viewBox="0 0 25 24" fill="none" xmlns="http://www.w3.org/2000/svg">
<path fill-rule="evenodd" clip-rule="evenodd" d="M6.09963 2.39999C4.11141 2.39999 2.49963 4.01177 2.49963 5.99999V15C2.49963 16.9882 4.11141 18.6 6.09963 18.6H8.85111L11.4683 21.2172C12.0931 21.842 13.1062 21.842 13.731 21.2172L16.3482 18.6H19.0996C21.0879 18.6 22.6996 16.9882 22.6996 15V5.99999C22.6996 4.01177 21.0879 2.39999 19.0996 2.39999H6.09963ZM16.0996 17.4H19.0996C20.4251 17.4 21.4996 16.3255 21.4996 15V5.99999C21.4996 4.67451 20.4251 3.59999 19.0996 3.59999H6.09963C4.77415 3.59999 3.69963 4.67451 3.69963 5.99999V15C3.69963 16.3255 4.77415 17.4 6.09963 17.4H9.09963C9.25319 17.4 9.40674 17.4586 9.5239 17.5757L12.3168 20.3686C12.473 20.5248 12.7263 20.5248 12.8825 20.3686L15.6754 17.5757C15.7925 17.4586 15.9461 17.4 16.0996 17.4Z" fill="#717171"/>
</svg>
