<svg width="25" height="24" viewBox="0 0 25 24" fill="none" xmlns="http://www.w3.org/2000/svg">
<path fill-rule="evenodd" clip-rule="evenodd" d="M16.8156 15.6628C18.1119 14.2125 18.8999 12.2984 18.8999 10.2002C18.8999 5.67146 15.2287 2.0002 10.6999 2.0002C6.1712 2.0002 2.49994 5.67146 2.49994 10.2002C2.49994 14.7289 6.1712 18.4002 10.6999 18.4002C12.7228 18.4002 14.5745 17.6678 16.0044 16.4536C16.0332 16.5155 16.0732 16.5734 16.1242 16.6245L21.2757 21.7759C21.51 22.0102 21.8899 22.0102 22.1242 21.7759C22.3585 21.5416 22.3585 21.1617 22.1242 20.9274L16.9727 15.7759C16.9255 15.7287 16.8723 15.691 16.8156 15.6628ZM17.6999 10.2002C17.6999 14.0662 14.5659 17.2002 10.6999 17.2002C6.83395 17.2002 3.69994 14.0662 3.69994 10.2002C3.69994 6.33421 6.83395 3.2002 10.6999 3.2002C14.5659 3.2002 17.6999 6.33421 17.6999 10.2002Z" fill="#717171"/>
</svg>
